<?xml version="1.0" standalone="no"?>
<!DOCTYPE svg PUBLIC "-//W3C//DTD SVG 20010904//EN"
 "http://www.w3.org/TR/2001/REC-SVG-20010904/DTD/svg10.dtd">
<svg version="1.0" xmlns="http://www.w3.org/2000/svg"
 width="225.000000pt" height="225.000000pt" viewBox="0 0 225.000000 225.000000"
 preserveAspectRatio="xMidYMid meet">

<g transform="translate(0.000000,225.000000) scale(0.100000,-0.100000)"
fill="#000000" stroke="none">
<path d="M1065 1788 c-16 -6 -43 -22 -59 -37 -50 -46 -60 -82 -61 -231 -2
-158 -7 -172 -94 -293 -80 -111 -124 -206 -129 -282 -5 -70 -34 -117 -85 -139
-54 -22 -61 -38 -64 -147 -2 -93 -1 -100 20 -113 12 -7 45 -17 73 -20 28 -4
84 -18 123 -31 106 -37 163 -32 203 19 15 19 26 21 142 21 l126 0 30 -37 c56
-68 120 -63 211 17 34 29 82 63 107 75 79 38 91 71 47 130 -14 19 -30 51 -35
71 -6 20 -18 43 -28 53 -17 14 -18 23 -10 65 19 92 -37 234 -138 351 -71 83
-86 125 -94 265 -9 168 -42 234 -129 264 -41 13 -115 13 -156 -1z m164 -204
c33 -42 26 -114 -10 -114 -15 0 -17 5 -13 30 6 29 -8 60 -28 60 -5 0 -15 -15
-23 -32 l-14 -33 52 -25 c54 -26 68 -50 46 -76 -16 -20 -123 -74 -146 -74 -24
0 -111 61 -119 83 -13 39 88 112 137 100 21 -6 22 -4 11 9 -13 16 -4 57 20 85
18 23 65 15 87 -13z m-195 10 c8 -3 20 -22 27 -41 9 -29 9 -37 -2 -44 -10 -6
-16 -1 -22 16 -5 14 -16 25 -24 25 -12 0 -15 -8 -10 -40 4 -29 1 -40 -8 -40
-28 0 -34 72 -9 108 16 23 23 26 48 16z m241 -281 c15 -43 47 -117 71 -165 24
-47 48 -107 55 -132 6 -26 17 -46 25 -46 40 0 22 135 -27 196 -36 45 -38 61
-3 19 39 -45 66 -111 71 -175 5 -50 9 -59 34 -74 37 -22 55 -54 40 -69 -8 -8
-11 -5 -11 10 0 23 -45 56 -93 67 -23 5 -33 1 -63 -31 -43 -46 -64 -90 -64
-137 0 -19 -5 -57 -10 -84 -10 -42 -16 -52 -52 -72 -88 -49 -233 -34 -278 30
l-20 29 20 6 c50 16 8 99 -80 156 -70 45 -94 86 -88 152 4 51 53 176 64 164 3
-3 -4 -24 -16 -48 -29 -56 -37 -147 -16 -174 15 -20 15 -19 16 7 0 36 30 124
79 235 22 51 44 111 47 133 4 22 11 43 16 46 4 3 22 -6 39 -20 17 -14 42 -26
55 -26 26 0 138 53 149 70 3 5 8 10 9 10 2 0 16 -35 31 -77z m-473 -452 c13
-11 39 -46 56 -79 17 -32 52 -85 77 -117 72 -93 71 -154 -5 -176 -35 -11 -49
-9 -137 19 -54 17 -120 34 -146 37 -56 7 -70 29 -55 83 5 19 7 51 3 72 -8 49
6 75 48 90 19 6 48 28 66 50 36 45 57 49 93 21z m582 -15 c8 -19 23 -37 34
-40 20 -7 69 11 105 36 27 20 69 -8 83 -57 6 -22 23 -58 38 -79 14 -21 26 -42
26 -46 0 -12 -33 -37 -79 -60 -24 -12 -65 -41 -90 -65 -25 -23 -56 -47 -68
-54 -34 -17 -88 -13 -117 10 -31 24 -34 67 -12 157 8 31 19 90 24 130 9 62 24
102 38 102 2 0 10 -15 18 -34z"/>
<path d="M1189 1409 l-24 -20 28 17 c15 9 27 18 27 20 0 8 -8 4 -31 -17z"/>
<path d="M1027 1379 c7 -7 15 -10 18 -7 3 3 -2 9 -12 12 -14 6 -15 5 -6 -5z"/>
<path d="M1073 1363 c9 -2 23 -2 30 0 6 3 -1 5 -18 5 -16 0 -22 -2 -12 -5z"/>
</g>
</svg>
