<?xml version="1.0" standalone="no"?>
<!DOCTYPE svg PUBLIC "-//W3C//DTD SVG 20010904//EN"
 "http://www.w3.org/TR/2001/REC-SVG-20010904/DTD/svg10.dtd">
<svg version="1.0" xmlns="http://www.w3.org/2000/svg"
 width="256.000000pt" height="256.000000pt" viewBox="0 0 256.000000 256.000000"
 preserveAspectRatio="xMidYMid meet">

<g transform="translate(0.000000,256.000000) scale(0.100000,-0.100000)"
fill="#000000" stroke="none">
<path d="M1756 2274 c-13 -12 -16 -38 -16 -120 l0 -104 -125 0 c-138 0 -178
-10 -228 -58 -57 -54 -61 -71 -65 -274 l-4 -188 -89 0 c-107 0 -109 -2 -109
-119 l0 -81 -150 0 -150 0 0 104 c0 82 -3 108 -16 120 -13 14 -50 16 -253 16
-171 0 -240 -3 -249 -12 -17 -17 -17 -539 0 -556 9 -9 78 -12 249 -12 203 0
240 2 253 16 13 12 16 38 16 120 l0 104 150 0 150 0 0 -81 c0 -117 2 -119 109
-119 l89 0 4 -187 c4 -204 8 -221 65 -275 50 -48 90 -58 228 -58 l125 0 0
-104 c0 -82 3 -108 16 -120 13 -14 50 -16 253 -16 171 0 240 3 249 12 17 17
17 539 0 556 -9 9 -78 12 -249 12 -203 0 -240 -2 -253 -16 -13 -12 -16 -38
-16 -120 l0 -104 -125 0 c-124 0 -125 0 -157 29 l-33 29 0 179 0 178 75 3 c41
2 80 8 87 14 10 8 13 64 13 238 0 174 -3 230 -13 238 -7 6 -46 12 -87 14 l-75
3 0 178 0 179 33 29 c32 29 33 29 157 29 l125 0 0 -104 c0 -82 3 -108 16 -120
13 -14 50 -16 253 -16 171 0 240 3 249 12 17 17 17 539 0 556 -9 9 -78 12
-249 12 -203 0 -240 -2 -253 -16z m414 -271 l0 -188 -165 3 -164 3 0 177 0
177 162 5 c89 3 163 7 165 8 1 1 2 -82 2 -185z m-1451 -723 l0 -179 -165 -3
-164 -3 0 185 0 185 164 -3 165 -3 0 -179z m781 0 l0 -150 -140 0 -140 0 0
150 0 150 140 0 140 0 0 -150z m670 -717 l0 -188 -165 3 -164 3 0 177 0 177
162 5 c89 3 163 7 165 8 1 1 2 -82 2 -185z"/>
<path d="M2154 2000 c0 -96 2 -136 3 -87 2 48 2 126 0 175 -1 48 -3 8 -3 -88z"/>
<path d="M404 1280 c0 -96 2 -136 3 -87 2 48 2 126 0 175 -1 48 -3 8 -3 -88z"/>
<path d="M2154 560 c0 -96 2 -136 3 -87 2 48 2 126 0 175 -1 48 -3 8 -3 -88z"/>
</g>
</svg>
