<?xml version="1.0" standalone="no"?>
<!DOCTYPE svg PUBLIC "-//W3C//DTD SVG 20010904//EN"
 "http://www.w3.org/TR/2001/REC-SVG-20010904/DTD/svg10.dtd">
<svg version="1.0" xmlns="http://www.w3.org/2000/svg"
 width="225.000000pt" height="225.000000pt" viewBox="0 0 225.000000 225.000000"
 preserveAspectRatio="xMidYMid meet">

<g transform="translate(0.000000,225.000000) scale(0.100000,-0.100000)"
fill="#000000" stroke="none">
<path d="M1488 2219 c-215 -31 -367 -239 -368 -502 l0 -79 88 7 c106 9 177 32
242 80 120 88 190 242 190 423 l0 82 -47 -1 c-27 -1 -74 -5 -105 -10z m-3
-186 c-18 -100 -133 -233 -201 -233 -13 0 -15 6 -9 28 27 113 133 242 199 242
16 0 17 -5 11 -37z"/>
<path d="M1395 1635 c-33 -7 -92 -22 -130 -33 -117 -34 -123 -34 -255 -1 -146
36 -263 46 -340 30 -185 -40 -338 -199 -407 -426 -14 -48 -18 -94 -18 -235 0
-159 2 -184 27 -271 61 -217 160 -400 288 -530 152 -154 235 -174 448 -105 63
20 128 36 147 36 18 0 75 -13 126 -29 189 -58 244 -60 340 -11 130 67 301 304
370 513 22 69 21 97 -6 97 -60 0 -162 94 -209 190 -27 57 -31 75 -30 150 0
119 29 178 140 286 46 44 84 85 84 91 0 6 -39 48 -88 95 -98 94 -161 130 -267
153 -84 18 -140 18 -220 0z m270 -165 c22 -11 55 -33 73 -48 l34 -28 -47 -55
c-180 -209 -167 -498 31 -696 41 -41 74 -80 74 -86 0 -15 -91 -176 -128 -227
-45 -62 -106 -121 -144 -141 -53 -27 -96 -24 -219 16 -148 48 -220 48 -368 0
-123 -40 -166 -43 -219 -16 -136 69 -314 383 -357 628 -40 230 6 435 126 567
107 118 216 136 449 78 151 -39 188 -39 310 -6 196 55 294 58 385 14z"/>
</g>
</svg>
