<?xml version="1.0" standalone="no"?>
<!DOCTYPE svg PUBLIC "-//W3C//DTD SVG 20010904//EN"
 "http://www.w3.org/TR/2001/REC-SVG-20010904/DTD/svg10.dtd">
<svg version="1.0" xmlns="http://www.w3.org/2000/svg"
 width="512.000000pt" height="512.000000pt" viewBox="0 0 512.000000 512.000000"
 preserveAspectRatio="xMidYMid meet">

<g transform="translate(0.000000,512.000000) scale(0.100000,-0.100000)"
fill="#000000" stroke="none">
<path d="M2525 4664 c-2110 -428 -2241 -456 -2263 -480 l-22 -25 0 -1594 0
-1594 23 -26 c21 -25 123 -47 2272 -486 1237 -252 2260 -459 2272 -459 13 0
35 11 48 25 l25 24 0 2511 0 2511 -25 24 c-16 17 -35 25 -57 24 -18 0 -1041
-205 -2273 -455z m2195 -874 l0 -1150 -1260 0 -1260 0 2 897 3 896 1245 253
c685 139 1251 253 1258 253 9 1 12 -235 12 -1149z m-2680 -270 l0 -880 -820 0
-820 0 0 715 c0 393 3 715 8 715 4 1 369 74 812 165 443 90 808 164 813 164 4
1 7 -395 7 -879z m0 -1915 c0 -481 -3 -875 -7 -875 -5 0 -339 68 -743 151
-404 82 -770 157 -812 166 l-78 16 0 708 0 709 820 0 820 0 0 -875z m2680
-276 l0 -1151 -22 5 c-13 3 -580 119 -1260 258 l-1238 253 0 893 0 893 1260 0
1260 0 0 -1151z"/>
</g>
</svg>
